<svg xmlns="http://www.w3.org/2000/svg" xmlns:xlink="http://www.w3.org/1999/xlink" width="1080" zoomAndPan="magnify" viewBox="0 0 810 809.999993" height="1080" preserveAspectRatio="xMidYMid meet" version="1.0"><defs><g/><clipPath id="94848aa153"><path d="M 148.9375 265.023438 L 686.6875 265.023438 L 686.6875 393.273438 L 148.9375 393.273438 Z M 148.9375 265.023438 " clip-rule="nonzero"/></clipPath><clipPath id="f78505d5e7"><path d="M 229.390625 410 L 605.890625 410 L 605.890625 499.867188 L 229.390625 499.867188 Z M 229.390625 410 " clip-rule="nonzero"/></clipPath></defs><g clip-path="url(#94848aa153)"><path fill="#00296b" d="M 699.144531 369.167969 C 698.957031 370.03125 698.78125 370.867188 698.550781 371.699219 L 697.824219 374.140625 C 697.429688 375.746094 696.707031 377.261719 696.210938 378.757812 C 694.90625 381.695312 693.527344 384.433594 691.871094 386.984375 C 690.140625 389.476562 688.355469 391.878906 686.242188 394.003906 C 682.054688 398.257812 677.140625 401.792969 671.308594 404.390625 L 670.214844 404.910156 L 669.082031 405.339844 C 668.320312 405.609375 667.554688 405.933594 666.765625 406.21875 C 665.183594 406.644531 663.550781 407.292969 661.839844 407.667969 C 660.132812 408.105469 658.363281 408.4375 656.511719 408.75 C 656.492188 408.75 656.476562 408.757812 656.457031 408.757812 C 654.269531 409.101562 653.6875 412.03125 655.632812 413.089844 C 657.46875 414.09375 659.441406 414.882812 661.476562 415.496094 C 663.503906 416.109375 665.601562 416.367188 667.742188 416.652344 C 668.816406 416.78125 669.886719 416.730469 670.972656 416.753906 L 672.609375 416.753906 C 673.152344 416.738281 673.691406 416.652344 674.234375 416.601562 C 682.96875 415.796875 691.46875 411.527344 697.695312 405.09375 C 700.84375 401.890625 703.3125 398.078125 705.214844 394.058594 C 707.058594 389.988281 708.097656 385.621094 708.464844 381.277344 C 708.507812 380.1875 708.480469 379.089844 708.476562 378.003906 C 708.464844 377.464844 708.484375 376.933594 708.441406 376.394531 C 708.390625 375.855469 708.304688 375.320312 708.238281 374.785156 C 708.074219 373.71875 707.976562 372.667969 707.75 371.625 C 707.507812 370.589844 707.246094 369.570312 706.917969 368.566406 C 706.378906 366.945312 705.722656 365.371094 704.9375 363.878906 C 703.730469 361.589844 700.273438 362.15625 699.921875 364.722656 C 699.710938 366.257812 699.457031 367.730469 699.144531 369.167969 Z M 133.664062 364.722656 C 133.3125 362.15625 129.855469 361.589844 128.648438 363.878906 C 127.863281 365.371094 127.210938 366.945312 126.667969 368.566406 C 126.339844 369.570312 126.074219 370.589844 125.835938 371.625 C 125.609375 372.667969 125.511719 373.71875 125.351562 374.785156 C 125.28125 375.320312 125.195312 375.855469 125.148438 376.394531 C 125.105469 376.933594 125.121094 377.464844 125.109375 378.003906 C 125.105469 379.089844 125.082031 380.1875 125.121094 381.277344 C 125.492188 385.621094 126.53125 389.988281 128.375 394.058594 C 130.269531 398.078125 132.746094 401.890625 135.890625 405.09375 C 142.117188 411.527344 150.621094 415.796875 159.355469 416.601562 C 159.894531 416.652344 160.433594 416.738281 160.976562 416.753906 L 162.617188 416.753906 C 163.699219 416.730469 164.769531 416.78125 165.84375 416.652344 C 167.988281 416.367188 170.085938 416.109375 172.113281 415.496094 C 174.148438 414.882812 176.121094 414.09375 177.953125 413.089844 C 179.894531 412.03125 179.316406 409.101562 177.128906 408.757812 C 177.113281 408.757812 177.09375 408.75 177.074219 408.75 C 175.222656 408.4375 173.453125 408.105469 171.75 407.667969 C 170.042969 407.292969 168.40625 406.644531 166.824219 406.21875 C 166.035156 405.933594 165.265625 405.609375 164.507812 405.339844 L 163.375 404.910156 L 162.277344 404.390625 C 156.445312 401.792969 151.53125 398.257812 147.347656 394.003906 C 145.230469 391.878906 143.449219 389.476562 141.71875 386.984375 C 140.054688 384.433594 138.683594 381.695312 137.375 378.757812 C 136.882812 377.261719 136.15625 375.746094 135.769531 374.140625 L 135.035156 371.699219 C 134.804688 370.867188 134.628906 370.03125 134.445312 369.167969 C 134.132812 367.730469 133.878906 366.257812 133.664062 364.722656 Z M 418.9375 264.894531 C 465.207031 264.894531 511.164062 274.371094 555.535156 293.058594 C 598.480469 311.144531 640.042969 337.894531 679.066406 372.5625 C 682.023438 375.183594 682.289062 379.710938 679.664062 382.667969 C 677.039062 385.613281 672.519531 385.886719 669.566406 383.265625 C 592.933594 315.183594 506.269531 279.203125 418.9375 279.203125 C 330.863281 279.203125 243.542969 315.777344 166.417969 384.957031 C 163.472656 387.597656 158.953125 387.351562 156.3125 384.410156 C 153.671875 381.472656 153.914062 376.945312 156.859375 374.304688 C 196.121094 339.089844 237.96875 311.90625 281.238281 293.527344 C 325.957031 274.523438 372.285156 264.894531 418.9375 264.894531 " fill-opacity="1" fill-rule="nonzero"/></g><g clip-path="url(#f78505d5e7)"><path fill="#00296b" d="M 614.605469 483.007812 C 614.476562 483.609375 614.355469 484.195312 614.191406 484.777344 L 613.683594 486.484375 C 613.40625 487.609375 612.902344 488.667969 612.554688 489.714844 C 611.640625 491.769531 610.679688 493.683594 609.519531 495.46875 C 608.308594 497.214844 607.058594 498.894531 605.582031 500.378906 C 602.652344 503.355469 599.214844 505.828125 595.136719 507.644531 L 594.371094 508.007812 L 593.578125 508.308594 C 593.046875 508.5 592.507812 508.726562 591.957031 508.925781 C 590.847656 509.222656 589.707031 509.675781 588.511719 509.9375 C 587.316406 510.242188 586.078125 510.476562 584.785156 510.695312 C 584.773438 510.695312 584.757812 510.699219 584.746094 510.699219 C 583.214844 510.941406 582.808594 512.992188 584.167969 513.730469 C 585.453125 514.433594 586.832031 514.984375 588.257812 515.414062 C 589.675781 515.84375 591.140625 516.023438 592.640625 516.222656 C 593.390625 516.3125 594.140625 516.277344 594.902344 516.292969 L 596.046875 516.292969 C 596.425781 516.28125 596.800781 516.222656 597.179688 516.1875 C 603.289062 515.625 609.238281 512.636719 613.59375 508.136719 C 615.796875 505.898438 617.523438 503.230469 618.855469 500.417969 C 620.140625 497.570312 620.871094 494.515625 621.125 491.476562 C 621.160156 490.714844 621.136719 489.945312 621.136719 489.1875 C 621.125 488.808594 621.140625 488.4375 621.109375 488.058594 C 621.078125 487.683594 621.015625 487.308594 620.96875 486.933594 C 620.855469 486.191406 620.785156 485.453125 620.628906 484.726562 C 620.457031 484 620.273438 483.285156 620.042969 482.585938 C 619.667969 481.453125 619.207031 480.347656 618.660156 479.308594 C 617.816406 477.703125 615.398438 478.101562 615.152344 479.894531 C 615.003906 480.96875 614.828125 482 614.605469 483.007812 Z M 219.03125 479.894531 C 218.785156 478.101562 216.367188 477.703125 215.523438 479.308594 C 214.972656 480.347656 214.515625 481.453125 214.136719 482.585938 C 213.910156 483.285156 213.722656 484 213.554688 484.726562 C 213.398438 485.453125 213.328125 486.191406 213.214844 486.933594 C 213.167969 487.308594 213.105469 487.683594 213.074219 488.058594 C 213.042969 488.4375 213.054688 488.808594 213.046875 489.1875 C 213.042969 489.945312 213.027344 490.714844 213.054688 491.476562 C 213.3125 494.515625 214.042969 497.570312 215.332031 500.417969 C 216.65625 503.230469 218.390625 505.898438 220.589844 508.136719 C 224.945312 512.636719 230.894531 515.625 237.003906 516.1875 C 237.382812 516.222656 237.757812 516.28125 238.136719 516.292969 L 239.285156 516.292969 C 240.042969 516.277344 240.792969 516.3125 241.542969 516.222656 C 243.042969 516.023438 244.511719 515.84375 245.925781 515.414062 C 247.351562 514.984375 248.730469 514.433594 250.015625 513.730469 C 251.371094 512.992188 250.964844 510.941406 249.4375 510.699219 C 249.425781 510.699219 249.410156 510.695312 249.398438 510.695312 C 248.101562 510.476562 246.867188 510.242188 245.671875 509.9375 C 244.480469 509.675781 243.335938 509.222656 242.226562 508.925781 C 241.675781 508.726562 241.136719 508.5 240.605469 508.308594 L 239.8125 508.007812 L 239.046875 507.644531 C 234.96875 505.828125 231.53125 503.355469 228.601562 500.378906 C 227.125 498.894531 225.875 497.214844 224.664062 495.46875 C 223.5 493.683594 222.542969 491.769531 221.628906 489.714844 C 221.285156 488.667969 220.773438 487.609375 220.503906 486.484375 L 219.992188 484.777344 C 219.828125 484.195312 219.707031 483.609375 219.578125 483.007812 C 219.359375 482 219.183594 480.96875 219.03125 479.894531 Z M 418.59375 410.0625 C 450.957031 410.0625 483.109375 416.691406 514.148438 429.765625 C 544.1875 442.417969 573.261719 461.128906 600.5625 485.378906 C 602.628906 487.214844 602.816406 490.378906 600.980469 492.449219 C 599.144531 494.511719 595.980469 494.703125 593.914062 492.867188 C 540.308594 445.242188 479.683594 420.074219 418.59375 420.074219 C 356.980469 420.074219 295.894531 445.65625 241.941406 494.050781 C 239.882812 495.898438 236.722656 495.726562 234.875 493.667969 C 233.027344 491.613281 233.199219 488.445312 235.257812 486.601562 C 262.722656 461.964844 291.996094 442.949219 322.265625 430.09375 C 353.546875 416.796875 385.957031 410.0625 418.59375 410.0625 " fill-opacity="1" fill-rule="nonzero"/></g><g fill="#003f88" fill-opacity="1"><g transform="translate(262.03886, 406.585381)"><g><path d="M 12.46875 -36.9375 C 16.0625 -37.53125 19.109375 -37.691406 21.609375 -37.421875 C 24.117188 -37.160156 26.171875 -36.601562 27.765625 -35.75 C 29.359375 -34.90625 30.628906 -33.90625 31.578125 -32.75 C 32.523438 -31.59375 33.242188 -30.414062 33.734375 -29.21875 C 34.765625 -26.65625 35.023438 -23.992188 34.515625 -21.234375 C 34.015625 -18.472656 32.648438 -15.882812 30.421875 -13.46875 C 28.203125 -11.050781 25.082031 -9.03125 21.0625 -7.40625 C 17.03125 -5.78125 13.25 -4.984375 9.71875 -5.015625 C 6.1875 -5.046875 3.125 -5.570312 0.53125 -6.59375 L 2.640625 -18.5625 C 3.554688 -15.363281 5.148438 -12.929688 7.421875 -11.265625 C 9.691406 -9.609375 12.273438 -8.6875 15.171875 -8.5 C 18.078125 -8.3125 20.882812 -8.765625 23.59375 -9.859375 C 26.25 -10.941406 28.09375 -12.273438 29.125 -13.859375 C 30.15625 -15.441406 30.648438 -17.101562 30.609375 -18.84375 C 30.578125 -20.59375 30.265625 -22.203125 29.671875 -23.671875 C 28.722656 -26.003906 27.4375 -27.597656 25.8125 -28.453125 C 24.1875 -29.304688 22.21875 -29.71875 19.90625 -29.6875 C 17.601562 -29.664062 14.945312 -29.425781 11.9375 -28.96875 C 7.207031 -28.28125 3.328125 -28.28125 0.296875 -28.96875 C -2.722656 -29.664062 -5.070312 -30.800781 -6.75 -32.375 C -8.4375 -33.957031 -9.648438 -35.664062 -10.390625 -37.5 C -11.992188 -41.476562 -11.710938 -45.304688 -9.546875 -48.984375 C -7.378906 -52.660156 -3.597656 -55.59375 1.796875 -57.78125 C 5.734375 -59.375 9.285156 -60.101562 12.453125 -59.96875 C 15.628906 -59.84375 18.476562 -59.28125 21 -58.28125 L 18.828125 -46.125 C 17.921875 -49.394531 16.40625 -51.878906 14.28125 -53.578125 C 12.164062 -55.273438 9.757812 -56.253906 7.0625 -56.515625 C 4.375 -56.785156 1.75 -56.398438 -0.8125 -55.359375 C -2.96875 -54.484375 -4.535156 -53.382812 -5.515625 -52.0625 C -6.492188 -50.738281 -7.003906 -49.304688 -7.046875 -47.765625 C -7.097656 -46.222656 -6.8125 -44.671875 -6.1875 -43.109375 C -5.132812 -40.503906 -3.640625 -38.695312 -1.703125 -37.6875 C 0.222656 -36.6875 2.414062 -36.207031 4.875 -36.25 C 7.332031 -36.289062 9.863281 -36.519531 12.46875 -36.9375 Z M 12.46875 -36.9375 "/></g></g></g><g fill="#003f88" fill-opacity="1"><g transform="translate(300.781111, 390.745832)"><g><path d="M 10.71875 -40.71875 C 15.039062 -41.914062 18.8125 -42.160156 22.03125 -41.453125 C 25.25 -40.753906 27.914062 -39.316406 30.03125 -37.140625 C 32.15625 -34.960938 33.671875 -32.234375 34.578125 -28.953125 C 35.566406 -25.378906 35.644531 -21.976562 34.8125 -18.75 C 33.988281 -15.519531 32.320312 -12.695312 29.8125 -10.28125 C 27.3125 -7.875 24.007812 -6.101562 19.90625 -4.96875 C 18.34375 -4.539062 16.894531 -4.269531 15.5625 -4.15625 C 14.238281 -4.039062 12.976562 -3.992188 11.78125 -4.015625 L 14.359375 5.25 C 14.878906 7.15625 15.503906 8.492188 16.234375 9.265625 C 16.960938 10.035156 18.238281 10.550781 20.0625 10.8125 L 20.125 11.03125 L 5.84375 12.46875 L 5.78125 12.234375 C 6.914062 11.554688 7.601562 10.773438 7.84375 9.890625 C 8.082031 9.003906 7.960938 7.679688 7.484375 5.921875 L -3.0625 -32.125 C -3.613281 -32.320312 -4.351562 -32.421875 -5.28125 -32.421875 C -6.207031 -32.421875 -7.15625 -32.316406 -8.125 -32.109375 L -8.203125 -32.40625 C -5.867188 -33.8125 -3.515625 -35.070312 -1.140625 -36.1875 C 1.234375 -37.3125 3.457031 -38.25 5.53125 -39 C 7.601562 -39.757812 9.332031 -40.332031 10.71875 -40.71875 Z M 22.203125 -6.984375 C 24.097656 -7.515625 25.6875 -8.429688 26.96875 -9.734375 C 28.25 -11.046875 29.066406 -12.820312 29.421875 -15.0625 C 29.773438 -17.3125 29.488281 -20.101562 28.5625 -23.4375 C 27.53125 -27.195312 26.019531 -30.390625 24.03125 -33.015625 C 22.050781 -35.640625 19.773438 -37.515625 17.203125 -38.640625 C 14.628906 -39.773438 11.914062 -39.953125 9.0625 -39.171875 C 7.875 -38.835938 6.734375 -38.378906 5.640625 -37.796875 C 4.546875 -37.210938 3.644531 -36.613281 2.9375 -36 L 10.703125 -7.953125 C 12.523438 -7.335938 14.421875 -6.890625 16.390625 -6.609375 C 18.359375 -6.335938 20.296875 -6.460938 22.203125 -6.984375 Z M 22.203125 -6.984375 "/></g></g></g><g fill="#003f88" fill-opacity="1"><g transform="translate(339.957955, 379.698476)"><g><path d="M 16.203125 -39.375 C 19.898438 -39.96875 23.296875 -39.71875 26.390625 -38.625 C 29.492188 -37.539062 32.066406 -35.757812 34.109375 -33.28125 C 36.148438 -30.8125 37.457031 -27.769531 38.03125 -24.15625 C 38.59375 -20.59375 38.285156 -17.304688 37.109375 -14.296875 C 35.941406 -11.285156 34.050781 -8.785156 31.4375 -6.796875 C 28.820312 -4.816406 25.664062 -3.53125 21.96875 -2.9375 C 18.25 -2.351562 14.84375 -2.601562 11.75 -3.6875 C 8.664062 -4.78125 6.101562 -6.5625 4.0625 -9.03125 C 2.019531 -11.507812 0.710938 -14.554688 0.140625 -18.171875 C -0.429688 -21.785156 -0.128906 -25.082031 1.046875 -28.0625 C 2.222656 -31.050781 4.113281 -33.535156 6.71875 -35.515625 C 9.320312 -37.503906 12.484375 -38.789062 16.203125 -39.375 Z M 24.609375 -4.625 C 27.492188 -5.082031 29.582031 -6.523438 30.875 -8.953125 C 32.164062 -11.390625 32.507812 -14.515625 31.90625 -18.328125 C 31.5 -20.867188 30.738281 -23.359375 29.625 -25.796875 C 28.519531 -28.242188 27.148438 -30.425781 25.515625 -32.34375 C 23.890625 -34.257812 22.054688 -35.71875 20.015625 -36.71875 C 17.984375 -37.71875 15.828125 -38.039062 13.546875 -37.6875 C 10.660156 -37.226562 8.570312 -35.785156 7.28125 -33.359375 C 5.988281 -30.929688 5.644531 -27.8125 6.25 -24 C 6.644531 -21.46875 7.398438 -18.976562 8.515625 -16.53125 C 9.640625 -14.082031 11.007812 -11.898438 12.625 -9.984375 C 14.25 -8.066406 16.09375 -6.601562 18.15625 -5.59375 C 20.21875 -4.59375 22.367188 -4.269531 24.609375 -4.625 Z M 24.609375 -4.625 "/></g></g></g><g fill="#003f88" fill-opacity="1"><g transform="translate(381.017838, 373.439379)"><g><path d="M 21.53125 -37.71875 C 22.21875 -37.757812 22.875 -37.738281 23.5 -37.65625 C 24.125 -37.570312 24.785156 -37.378906 25.484375 -37.078125 L 19.78125 -26.328125 L 19.484375 -26.3125 C 20.316406 -28.84375 20.382812 -30.65625 19.6875 -31.75 C 19 -32.851562 18.070312 -33.363281 16.90625 -33.28125 C 15.664062 -33.207031 14.59375 -32.664062 13.6875 -31.65625 C 12.789062 -30.65625 12.09375 -29.382812 11.59375 -27.84375 C 11.09375 -26.3125 10.773438 -24.675781 10.640625 -22.9375 L 11.609375 -7.640625 C 11.734375 -5.660156 12.035156 -4.21875 12.515625 -3.3125 C 12.992188 -2.40625 13.800781 -1.613281 14.9375 -0.9375 L 4.875 -0.3125 L 4.921875 -5.421875 L 3.140625 -33.828125 C 2.617188 -34.140625 1.921875 -34.390625 1.046875 -34.578125 C 0.171875 -34.773438 -0.664062 -34.875 -1.46875 -34.875 L -1.484375 -35.15625 L 10.125 -37 L 10.109375 -31.515625 L 10.25 -29.15625 L 11.203125 -29.21875 C 11.898438 -31.632812 13.175781 -33.613281 15.03125 -35.15625 C 16.894531 -36.707031 19.0625 -37.5625 21.53125 -37.71875 Z M 21.53125 -37.71875 "/></g></g></g><g fill="#003f88" fill-opacity="1"><g transform="translate(407.875935, 371.768085)"><g><path d="M 11.109375 1.234375 L 5.625 -0.65625 L 5.875 -5.078125 L 6.03125 -40.34375 C 6.03125 -41.925781 5.597656 -42.726562 4.734375 -42.75 C 3.867188 -42.78125 2.222656 -42.457031 -0.203125 -41.78125 L -0.203125 -42.21875 L 13.46875 -48.46875 L 12.859375 -45.4375 L 12.8125 -35.875 L 21.765625 -35.828125 L 21.40625 -34.0625 L 12.8125 -34.109375 L 12.671875 -1.28125 L 21.625 -1.53125 L 21.625 -1.234375 L 12.671875 1.234375 Z M 11.109375 1.234375 "/></g></g></g><g fill="#003f88" fill-opacity="1"><g transform="translate(429.905797, 371.928769)"><g/></g></g><g fill="#003f88" fill-opacity="1"><g transform="translate(442.119571, 371.496525)"><g><path d="M 62.40625 -42.9375 C 60.863281 -42.957031 59.503906 -42.789062 58.328125 -42.4375 C 57.148438 -42.082031 56.46875 -41.242188 56.28125 -39.921875 L 50.015625 3.03125 C 49.816406 4.34375 50.226562 5.332031 51.25 6 C 52.28125 6.675781 53.539062 7.222656 55.03125 7.640625 L 54.984375 8.015625 L 36.359375 5.296875 L 36.40625 4.921875 C 37.957031 4.953125 39.316406 4.789062 40.484375 4.4375 C 41.660156 4.082031 42.347656 3.25 42.546875 1.9375 L 45.546875 -18.59375 L 17.75 -22.640625 L 14.75 -2.109375 C 14.550781 -0.796875 14.960938 0.191406 15.984375 0.859375 C 17.015625 1.535156 18.273438 2.082031 19.765625 2.5 L 19.71875 2.875 L 1.09375 0.15625 L 1.140625 -0.21875 C 2.691406 -0.195312 4.050781 -0.359375 5.21875 -0.703125 C 6.382812 -1.054688 7.066406 -1.890625 7.265625 -3.203125 L 13.53125 -46.15625 C 13.71875 -47.476562 13.300781 -48.476562 12.28125 -49.15625 C 11.269531 -49.832031 10.015625 -50.378906 8.515625 -50.796875 L 8.578125 -51.15625 L 27.203125 -48.4375 L 27.140625 -48.078125 C 25.597656 -48.097656 24.238281 -47.929688 23.0625 -47.578125 C 21.882812 -47.222656 21.203125 -46.382812 21.015625 -45.0625 L 17.921875 -23.875 L 45.71875 -19.828125 L 48.8125 -41.015625 C 49 -42.335938 48.582031 -43.332031 47.5625 -44 C 46.539062 -44.675781 45.28125 -45.226562 43.78125 -45.65625 L 43.84375 -46.015625 L 62.46875 -43.296875 Z M 62.40625 -42.9375 "/></g></g></g><g fill="#003f88" fill-opacity="1"><g transform="translate(494.441089, 379.289668)"><g><path d="M 38 8.21875 C 38.425781 8.6875 39.003906 9.140625 39.734375 9.578125 C 40.472656 10.015625 41.109375 10.363281 41.640625 10.625 L 41.5625 10.921875 L 30.71875 9.015625 L 32.640625 2.171875 C 31.128906 2.773438 29.398438 3.390625 27.453125 4.015625 C 25.503906 4.640625 23.4375 5.054688 21.25 5.265625 C 19.0625 5.484375 16.847656 5.273438 14.609375 4.640625 C 13.566406 4.347656 12.515625 3.859375 11.453125 3.171875 C 10.390625 2.484375 9.5 1.539062 8.78125 0.34375 C 8.0625 -0.851562 7.628906 -2.378906 7.484375 -4.234375 C 7.347656 -6.097656 7.664062 -8.390625 8.4375 -11.109375 L 12.734375 -26.4375 C 13.285156 -28.382812 13.441406 -29.863281 13.203125 -30.875 C 12.972656 -31.882812 12.148438 -32.976562 10.734375 -34.15625 L 10.78125 -34.28125 L 21.625 -31.234375 L 19.8125 -26.4375 L 15.03125 -9.40625 C 14.269531 -6.695312 14.066406 -4.507812 14.421875 -2.84375 C 14.773438 -1.175781 15.441406 0.0859375 16.421875 0.953125 C 17.410156 1.816406 18.453125 2.40625 19.546875 2.71875 C 21.960938 3.394531 24.285156 3.421875 26.515625 2.796875 C 28.753906 2.171875 30.941406 1.4375 33.078125 0.59375 L 38.625 -19.15625 C 39.175781 -21.101562 39.332031 -22.582031 39.09375 -23.59375 C 38.863281 -24.613281 38.039062 -25.707031 36.625 -26.875 L 36.671875 -27 L 47.515625 -23.953125 L 45.6875 -19.15625 Z M 38 8.21875 "/></g></g></g><g fill="#003f88" fill-opacity="1"><g transform="translate(533.764932, 390.160588)"><g><path d="M 34.5625 -25.203125 C 38.082031 -23.773438 40.8125 -21.863281 42.75 -19.46875 C 44.6875 -17.082031 45.835938 -14.398438 46.203125 -11.421875 C 46.566406 -8.453125 46.097656 -5.367188 44.796875 -2.171875 C 43.453125 1.117188 41.457031 3.8125 38.8125 5.90625 C 36.175781 8.007812 32.953125 9.234375 29.140625 9.578125 C 25.328125 9.921875 20.972656 9.097656 16.078125 7.109375 C 14.378906 6.410156 12.332031 5.398438 9.9375 4.078125 C 7.550781 2.765625 5.015625 1 2.328125 -1.21875 L 2.359375 -1.28125 C 3.640625 -1.03125 4.695312 -1.210938 5.53125 -1.828125 C 6.375 -2.441406 7.253906 -3.867188 8.171875 -6.109375 L 23.265625 -43.234375 C 23.828125 -44.609375 23.71875 -45.453125 22.9375 -45.765625 C 22.15625 -46.085938 20.5625 -46.363281 18.15625 -46.59375 L 18.328125 -47.015625 L 32.875 -47.8125 L 31.453125 -45.265625 L 23.828125 -26.546875 C 25.273438 -26.847656 26.898438 -26.910156 28.703125 -26.734375 C 30.503906 -26.566406 32.457031 -26.054688 34.5625 -25.203125 Z M 20.46875 7.28125 C 22.613281 8.15625 24.664062 8.507812 26.625 8.34375 C 28.582031 8.1875 30.398438 7.359375 32.078125 5.859375 C 33.753906 4.359375 35.234375 2.03125 36.515625 -1.125 C 37.953125 -4.644531 38.691406 -7.992188 38.734375 -11.171875 C 38.773438 -14.359375 38.140625 -17.15625 36.828125 -19.5625 C 35.515625 -21.96875 33.550781 -23.703125 30.9375 -24.765625 C 29.5625 -25.316406 28.222656 -25.601562 26.921875 -25.625 C 25.628906 -25.644531 24.40625 -25.46875 23.25 -25.09375 L 12.828125 0.5 C 13.546875 1.90625 14.503906 3.1875 15.703125 4.34375 C 16.910156 5.5 18.5 6.476562 20.46875 7.28125 Z M 20.46875 7.28125 "/></g></g></g></svg>